<svg width="138" height="36" viewBox="0 0 138 36" fill="none" xmlns="http://www.w3.org/2000/svg">
<path fill-rule="evenodd" clip-rule="evenodd" d="M137.695 0H0V24.657H101.081H137.695V0Z" fill="#E22427"/>
<path fill-rule="evenodd" clip-rule="evenodd" d="M98.7817 12.3281C98.7817 18.2976 97.3852 23.1373 95.6623 23.138H4.64418C2.92161 23.138 1.52539 18.2983 1.52539 12.3281C1.52539 6.35822 2.92161 1.51855 4.64418 1.51855H95.6623C97.3852 1.51921 98.7817 6.35854 98.7817 12.3281Z" fill="#FEFEFE"/>
<path fill-rule="evenodd" clip-rule="evenodd" d="M10.7632 6.74933H13.4282L17.629 17.878H14.8437L14.1201 15.7936H10.0693L9.36175 17.878H6.5752L10.7625 6.74933H10.7632ZM10.642 13.9034H13.5488L12.1026 9.65977L10.642 13.9034ZM18.6685 6.74933H24.2863C25.2804 6.74933 26.0157 6.91037 26.4917 7.2292C26.9693 7.54933 27.2986 7.89938 27.4783 8.28003C27.5985 8.53964 27.6717 8.78657 27.6975 9.02179C27.7223 9.25635 27.7347 9.44472 27.7347 9.58461C27.7347 10.0947 27.6266 10.5047 27.4107 10.8144C27.195 11.1244 26.9569 11.3635 26.6952 11.5337C26.5446 11.6345 26.3996 11.712 26.2591 11.7666C26.1186 11.8216 25.9975 11.8639 25.8975 11.8938V11.9247C25.9377 11.9345 25.9772 11.9413 26.0177 11.9465C26.0582 11.9508 26.0984 11.9592 26.1379 11.9693C26.6701 12.1095 27.1601 12.3988 27.6063 12.8393C28.0536 13.2798 28.277 13.9187 28.277 14.759C28.277 15.7292 28.0232 16.4287 27.5165 16.8581C27.0082 17.2892 26.4489 17.5735 25.8364 17.7134C25.4947 17.7938 25.1608 17.8413 24.8351 17.8562C24.5094 17.8709 24.2298 17.879 23.9995 17.879H18.6681V6.75031L18.6685 6.74933ZM21.3047 13.1828V15.8382H24.0449C24.1259 15.8382 24.2177 15.8304 24.3236 15.8154C24.4287 15.8001 24.5431 15.7673 24.6626 15.7181C24.8629 15.6378 25.0517 15.5002 25.2265 15.305C25.4029 15.1111 25.4908 14.8277 25.4908 14.4584C25.4908 13.9093 25.3075 13.5592 24.9413 13.4092C24.5751 13.2589 24.1749 13.1828 23.7434 13.1828C23.7336 13.1828 23.7254 13.1828 23.7212 13.1828C23.7166 13.1828 23.7088 13.1828 23.6983 13.1828H21.3041H21.3047ZM21.3047 8.78917V11.1443H23.7437C23.7947 11.1443 23.845 11.1423 23.8943 11.1365C23.9449 11.1322 23.9956 11.1241 24.0449 11.1137C24.2968 11.0737 24.5248 10.9637 24.7303 10.7838C24.9357 10.6036 25.0393 10.3384 25.0393 9.98933C25.0393 9.56835 24.9135 9.27067 24.6626 9.09629C24.4111 8.92191 24.136 8.82431 23.8345 8.80414C23.8041 8.79373 23.7718 8.78885 23.7359 8.78885C23.7009 8.78885 23.664 8.78885 23.6235 8.78885H21.3044L21.3047 8.78917ZM32.629 8.90987H29.2561V6.74966H38.6379V8.90987H35.265V17.8783H32.629V8.90987ZM45.174 18.1926C43.1258 18.1825 41.6727 17.5781 40.8145 16.3789C39.956 15.1781 39.5268 13.8244 39.5268 12.3135C39.5268 12.214 39.5291 12.1108 39.5346 12.0057C39.5389 11.9003 39.547 11.7985 39.5572 11.699C39.647 10.3784 40.1145 9.17144 40.957 8.07669C41.8011 6.98162 43.2065 6.43408 45.174 6.43408C47.1717 6.43408 48.5872 6.98943 49.4212 8.09947C50.2539 9.2095 50.7155 10.4289 50.8063 11.7582C50.8063 11.8493 50.8082 11.9407 50.8141 12.0357C50.8184 12.1307 50.821 12.2237 50.821 12.3132C50.821 12.4023 50.8187 12.4954 50.8141 12.5907C50.8082 12.6857 50.8063 12.7787 50.8063 12.8679C50.7155 14.1982 50.2535 15.4159 49.4212 16.5204C48.5872 17.6249 47.172 18.1777 45.174 18.1777V18.192V18.1926ZM45.174 16.0334C46.0074 16.0334 46.6176 15.8105 47.0041 15.3658C47.3909 14.9207 47.6535 14.434 47.794 13.9034C47.8747 13.6135 47.9247 13.3263 47.9446 13.041C47.9648 12.7566 47.9746 12.5142 47.9746 12.3138C47.9746 12.105 47.9648 11.8639 47.9446 11.5945C47.9247 11.3245 47.8796 11.0437 47.81 10.7539C47.6797 10.2145 47.4177 9.71995 47.0263 9.26904C46.6346 8.81943 46.0175 8.5943 45.174 8.5943C44.1604 8.5943 43.4593 8.91703 43.0725 9.56217C42.6861 10.2067 42.4623 10.9139 42.4032 11.6833C42.3927 11.793 42.3852 11.9007 42.381 12.0061C42.3751 12.1112 42.3731 12.2143 42.3731 12.3138C42.3731 12.4433 42.3751 12.5715 42.381 12.6964C42.3852 12.8217 42.3986 12.9479 42.4179 13.079C42.4884 13.8188 42.7184 14.4965 43.1111 15.1111C43.5018 15.725 44.1894 16.0334 45.174 16.0334ZM60.0983 13.9483H62.7186C62.6983 14.179 62.6578 14.4262 62.5983 14.6914C62.5376 14.9565 62.4523 15.2226 62.3419 15.4933C62.0711 16.1729 61.5791 16.7986 60.8656 17.3679C60.1535 17.9372 59.079 18.2225 57.6436 18.2225C56.0367 18.2225 54.8548 17.8884 54.0962 17.2179C53.339 16.5477 52.8245 15.8082 52.5537 14.9978C52.393 14.5381 52.2894 14.0882 52.2446 13.6487C52.1999 13.2085 52.1773 12.834 52.1773 12.524C52.1773 10.8651 52.4661 9.61682 53.0427 8.78234C53.6199 7.94753 54.2547 7.35901 54.9482 7.02001C55.4996 6.74966 56.022 6.58731 56.5143 6.53201C57.0066 6.47735 57.3526 6.45067 57.5538 6.45067C59.0088 6.45067 60.0931 6.72233 60.8065 7.26726C61.519 7.81187 62.0107 8.41406 62.2818 9.07416C62.3827 9.3237 62.4579 9.5742 62.5075 9.82406C62.5575 10.0746 62.5882 10.3085 62.5983 10.5287H60.0075C59.9973 10.4191 59.9748 10.2961 59.9402 10.1618C59.9052 10.0264 59.8526 9.88945 59.7817 9.74891C59.6514 9.46912 59.4234 9.2095 59.0977 8.96941C58.7707 8.72964 58.2967 8.60894 57.674 8.60894C56.9213 8.60894 56.364 8.8191 56.0024 9.23976C55.6408 9.65977 55.3856 10.1195 55.2341 10.6195C55.1338 10.979 55.0743 11.3264 55.0541 11.6615C55.0338 11.997 55.024 12.2488 55.024 12.4189C55.024 13.3992 55.1691 14.1386 55.4601 14.6387C55.7522 15.1387 56.0733 15.4933 56.4251 15.7032C56.7159 15.8727 56.989 15.9761 57.2454 16.0109C57.5015 16.0467 57.6743 16.0633 57.7642 16.0633C58.3463 16.0633 58.7935 15.9459 59.1049 15.7106C59.4159 15.4761 59.6475 15.2129 59.7984 14.9227C59.8984 14.7337 59.9712 14.5482 60.0163 14.369C60.061 14.1887 60.0895 14.0488 60.0993 13.9483H60.0983ZM66.9654 11.1732H72.432V13.2134H66.9654V15.7185H73.3202V17.8783H64.3297V6.74966H73.1699V8.90987H66.9657V11.1732H66.9654ZM77.2661 8.90987H73.8919V6.74966H83.274V8.90987H79.9008V17.8783H77.2661V8.90987ZM87.3111 6.74966V10.7844H90.0964C91.5831 10.7844 92.6062 11.1342 93.1694 11.834C93.7313 12.5344 94.0368 13.3042 94.0874 14.1435C94.0874 14.1936 94.0874 14.2418 94.0874 14.285C94.0874 14.3312 94.0874 14.3784 94.0874 14.4288C94.0874 15.5991 93.7512 16.4661 93.0786 17.0312C92.4063 17.595 91.4067 17.8783 90.082 17.8783H84.6758V6.74966H87.3115H87.3111ZM87.3111 12.944V15.7188H89.5547C90.0268 15.7188 90.4335 15.6261 90.7739 15.4416C91.1153 15.2562 91.2861 14.8889 91.2861 14.339C91.2861 13.7886 91.111 13.4187 90.7592 13.2297C90.4074 13.0393 89.9817 12.944 89.4799 12.944H87.3111Z" fill="#4D4D4D"/>
<path fill-rule="evenodd" clip-rule="evenodd" d="M4.64418 23.138V1.51855C2.92161 1.51855 1.52539 6.35822 1.52539 12.3281C1.52539 18.2983 2.92161 23.138 4.64418 23.138ZM98.7817 12.3281C98.7817 18.2976 97.3852 23.1373 95.6623 23.138V1.51855C97.3852 1.51921 98.7817 6.35854 98.7817 12.3281Z" fill="#EDEDED"/>
<path fill-rule="evenodd" clip-rule="evenodd" d="M123.748 18.6345H126.478V17.0043H126.914C128.776 17.0043 130.148 16.5491 131.032 15.6369C131.916 14.726 132.358 13.6234 132.358 12.3282C132.358 11.0334 131.916 9.93151 131.032 9.01927C130.148 8.10899 128.776 7.65352 126.914 7.65352H126.478V6.02197H123.748V7.65352H123.312C121.45 7.65352 120.078 8.10899 119.195 9.01927C118.31 9.93151 117.869 11.0331 117.869 12.3282C117.869 13.6231 118.31 14.726 119.195 15.6369C120.078 16.5491 121.451 17.0043 123.312 17.0043H123.748V18.6345ZM107.277 6.67394V18.2005H110.006V14.2393H112.611C112.85 14.2393 113.133 14.2256 113.461 14.2002C113.788 14.1745 114.124 14.1094 114.467 14.0066C115.081 13.8297 115.645 13.475 116.16 12.9425C116.675 12.4089 116.932 11.5618 116.932 10.4023C116.932 9.41911 116.633 8.55177 116.035 7.80122C115.436 7.05035 114.317 6.67427 112.674 6.67427H107.277V6.67394ZM110.006 8.92688V12.0026H112.144C112.716 12.0026 113.184 11.8962 113.547 11.6838C113.911 11.472 114.093 11.0494 114.093 10.4179C114.093 9.82708 113.923 9.43147 113.579 9.23009C113.236 9.02871 112.757 8.92688 112.144 8.92688H110.007H110.006ZM123.997 14.8291V9.82708H123.779C122.698 9.82708 121.915 10.0477 121.432 10.4875C120.948 10.928 120.706 11.5413 120.706 12.3279C120.706 13.2395 120.989 13.8846 121.557 14.263C122.123 14.6397 122.864 14.8291 123.779 14.8291H123.997H123.997ZM126.228 14.8291H126.447C127.372 14.8291 128.116 14.6401 128.678 14.263C129.239 13.8846 129.519 13.2398 129.519 12.3279C129.519 11.5413 129.277 10.928 128.794 10.4875C128.311 10.0473 127.528 9.82708 126.447 9.82708H126.228V14.8291H126.228Z" fill="url(#paint0_linear_23_2970)"/>
<path fill-rule="evenodd" clip-rule="evenodd" d="M3.7953 34.2875V33.6771H3.56205C3.3827 33.6771 3.18898 33.657 2.98318 33.6176C2.77704 33.5786 2.57254 33.5018 2.37033 33.3902C2.16779 33.2793 2.00053 33.1137 1.86692 32.8947C1.73331 32.6764 1.66602 32.3983 1.66602 32.0609C1.66602 31.6246 1.77382 31.2859 1.99041 31.0465C2.20536 30.8071 2.45461 30.6473 2.7385 30.5673C3.02271 30.4882 3.29646 30.4479 3.56238 30.4479H3.7953V29.832H4.35718V30.4479H4.5901C4.86124 30.4479 5.13859 30.4879 5.42117 30.5663C5.7044 30.646 5.953 30.8058 6.16501 31.0446C6.37931 31.2846 6.48548 31.624 6.48548 32.0615C6.48548 32.4145 6.41296 32.7024 6.26628 32.9247C6.11928 33.1469 5.93993 33.3115 5.72824 33.4175C5.51721 33.5242 5.31304 33.5942 5.11736 33.628C4.92201 33.6619 4.74723 33.6788 4.58945 33.6788H4.35685V34.2894L3.79497 34.2875H3.7953ZM3.7953 33.2474V30.879H3.64045C2.72249 30.879 2.26416 31.2729 2.26416 32.0612C2.26416 32.2532 2.29487 32.4357 2.35563 32.6075C2.41541 32.7786 2.54837 32.9295 2.75418 33.0561C2.95868 33.1839 3.25465 33.2471 3.64012 33.2471L3.7953 33.2474ZM4.35718 33.2474H4.51889C5.43129 33.2474 5.88799 32.8515 5.88799 32.0609C5.88799 31.5875 5.7498 31.272 5.47115 31.1155C5.19282 30.957 4.87627 30.8793 4.51889 30.8793L4.35718 30.8786V33.2471V33.2474ZM8.42366 31.8036H10.617V32.2623H8.42366V33.6765L10.9106 33.6771V34.1365H7.86243V30.0624H10.8463V30.5221H8.42366V31.8036ZM15.3619 33.6775H15.965L15.9117 35.0566L15.4208 35.0569V34.1372H12.1684V35.0566L11.6777 35.0569L11.6303 33.6778H12.0063C12.5372 33.0483 12.8018 32.1237 12.8018 30.9017V30.0637H15.3616V33.6778L15.3619 33.6775ZM14.7994 30.523H13.364V31.0302C13.364 31.3855 13.3454 31.7086 13.3088 32.0017C13.2712 32.2935 13.201 32.5798 13.0991 32.8609C12.9978 33.142 12.857 33.4136 12.6767 33.6768L14.7991 33.6775L14.7994 30.5234V30.523ZM17.732 31.8036H19.9253V32.2623H17.732V33.6765L20.218 33.6771V34.1365H17.1695V30.0624H20.154V30.5221H17.7323V31.8036H17.732ZM21.4466 30.063H23.1509C24.0957 30.063 24.5677 30.4524 24.5677 31.2326C24.5677 32.0866 24.0774 32.5128 23.0977 32.5128H22.0079V34.1368H21.4466L21.4463 30.063H21.4466ZM22.0079 30.5227V32.0534H23.0376C23.3789 32.0534 23.6239 31.9835 23.7719 31.8449C23.9202 31.7047 23.9941 31.5049 23.9941 31.2443C23.9941 30.9827 23.9124 30.7979 23.75 30.6877C23.586 30.577 23.3485 30.5217 23.0382 30.5217L22.0075 30.5224L22.0079 30.5227ZM26.3494 33.0834L25.9541 34.1381H25.3511L26.9351 30.0637L27.5333 30.064L29.118 34.1381H28.5127L28.1193 33.0834H26.3491H26.3494ZM26.5039 32.624H27.9661L27.2344 30.6161L26.5039 32.624ZM29.7896 34.1368V33.6596C29.8377 33.6713 29.8876 33.6768 29.9409 33.6768C30.4975 33.6768 30.7769 33.0558 30.7769 31.8153V30.0627H33.4014V34.1368H32.8392V30.5227H31.3387V31.9334C31.3387 32.7473 31.2189 33.3229 30.9797 33.657C30.7396 33.9924 30.4283 34.1599 30.0451 34.1599C29.9873 34.1606 29.902 34.1528 29.7896 34.1368ZM35.5966 30.0627V31.7212H36.7985C36.9883 31.7212 37.1846 31.7515 37.3859 31.8114C37.5874 31.8709 37.7658 31.9926 37.92 32.1744C38.0735 32.3569 38.1503 32.612 38.1503 32.9432C38.1503 33.3866 38.0128 33.6957 37.7413 33.873C37.4675 34.048 37.1536 34.1365 36.7985 34.1365H35.0344V30.0624L35.5966 30.0627ZM35.5966 32.1816V33.6771H36.7319C36.8406 33.6771 36.9576 33.6586 37.0837 33.6215C37.2104 33.5841 37.3241 33.5103 37.4247 33.3967C37.5257 33.2848 37.5766 33.1273 37.5766 32.926C37.5766 32.4295 37.2719 32.1809 36.6613 32.1809L35.5966 32.1813V32.1816ZM40.0297 32.2226V34.1368H39.4661V30.0627H40.0297V31.7616H42.1341V30.0627H42.6953V34.1368H42.1341V32.2226H40.0297ZM44.7969 33.0831L44.4016 34.1375H43.7979L45.3832 30.0627H45.9811L47.5664 34.1375H46.9601L46.5671 33.0824L44.7969 33.0831ZM44.9517 32.6237H46.4119L45.6818 30.6158L44.9517 32.6237ZM51.334 32.5177H50.385L49.3602 34.1362H48.6683L49.8035 32.4601C49.6738 32.4523 49.5425 32.4262 49.4099 32.3826C49.2782 32.3384 49.156 32.2711 49.0423 32.177C48.929 32.0853 48.8392 31.9656 48.7699 31.8159C48.7013 31.6666 48.6686 31.4873 48.6686 31.2772C48.6686 30.9655 48.7673 30.6841 48.963 30.4336C49.1603 30.1844 49.5428 30.0607 50.1089 30.0607H51.8969V34.1355H51.3343V32.517L51.3337 32.5177H51.334ZM51.334 30.5224H50.157C49.8104 30.5224 49.5709 30.6001 49.4396 30.7586C49.3083 30.916 49.2423 31.0924 49.2423 31.2846C49.2423 31.5085 49.3168 31.6933 49.4657 31.8406C49.614 31.9854 49.8705 32.0589 50.2347 32.0589H51.334V30.5224ZM55.9349 33.0831L55.5393 34.1378H54.9366L56.5216 30.0633L57.1191 30.0637L58.7045 34.1378H58.0998L57.7058 33.0831H55.9349ZM56.0897 32.6237H57.5503L56.8215 30.6158L56.0897 32.6237ZM59.806 30.0627H61.6416C61.8696 30.0627 62.064 30.0903 62.2254 30.143C62.3858 30.1974 62.5158 30.2699 62.6138 30.3643C62.7108 30.4593 62.7817 30.5683 62.8249 30.6919C62.8686 30.8155 62.8905 30.9512 62.8905 31.0979C62.8905 31.2313 62.8614 31.3601 62.8049 31.486C62.7484 31.6113 62.668 31.717 62.5612 31.8045C62.4541 31.8911 62.3312 31.947 62.1911 31.9721V31.9906C62.4074 32.0241 62.6089 32.1159 62.7928 32.2691C62.9784 32.4201 63.0705 32.665 63.0705 33.0018C63.0705 33.2337 63.0209 33.4328 62.9222 33.602C62.8235 33.7708 62.6628 33.9023 62.442 33.9957C62.2189 34.089 61.9314 34.1378 61.576 34.1378H59.8064V30.0627L59.8054 30.063L59.806 30.0627ZM60.3673 30.5224V31.7915H61.4976C61.7965 31.7915 62.0075 31.73 62.1316 31.6093C62.2545 31.487 62.3172 31.3373 62.3172 31.1568C62.3172 31.0023 62.2639 30.8562 62.1578 30.7228C62.0513 30.5888 61.8363 30.5224 61.5165 30.5224H60.3669H60.3673ZM60.3673 32.2509V33.6765H61.5345C61.7099 33.6765 61.8703 33.658 62.0118 33.6209C62.1529 33.5835 62.2698 33.5116 62.3606 33.4052C62.4508 33.2985 62.4952 33.1485 62.4952 32.9549C62.4952 32.6963 62.4103 32.5131 62.2381 32.4093C62.0673 32.3033 61.8318 32.2509 61.5341 32.2509H60.3673ZM65.4768 30.5224H64.1123V30.0627H67.3954V30.5224H66.0384V34.1362H65.4771L65.4765 30.5224H65.4768ZM70.3564 34.2585C70.0411 34.2585 69.7582 34.2091 69.5087 34.1085C69.2597 34.0087 69.0503 33.8649 68.8795 33.6768C68.7106 33.4881 68.5812 33.2614 68.4917 32.9939C68.4045 32.7249 68.3607 32.4262 68.3607 32.0996C68.3607 31.7281 68.4133 31.4057 68.5201 31.1291C68.626 30.8526 68.7733 30.6288 68.9579 30.4528C69.1418 30.2774 69.3528 30.1492 69.5943 30.0653C69.8324 29.983 70.0879 29.942 70.358 29.942C70.6341 29.942 70.8918 29.9817 71.1296 30.064C71.3697 30.1466 71.5801 30.2758 71.7647 30.4489C71.9506 30.6242 72.091 30.8487 72.1992 31.1262C72.3037 31.4037 72.3576 31.7268 72.3576 32.1003C72.3576 32.4327 72.3135 32.7314 72.2279 32.9959C72.14 33.2607 72.0126 33.4878 71.8405 33.6771C71.6703 33.8655 71.4599 34.0093 71.2093 34.1095C70.9572 34.2097 70.6723 34.2592 70.3567 34.2592L70.3564 34.2585ZM70.3551 33.7988C70.5922 33.7988 70.7994 33.7585 70.9764 33.6771C71.1541 33.5945 71.3005 33.4771 71.4155 33.3268C71.5318 33.1768 71.617 32.9962 71.6719 32.7896C71.7274 32.5808 71.7549 32.3524 71.7549 32.1006C71.7549 31.7323 71.7026 31.4307 71.5968 31.1968C71.4916 30.9622 71.3619 30.7882 71.2061 30.6746C71.0512 30.5605 70.9019 30.4863 70.7559 30.4524C70.6102 30.4186 70.4766 30.401 70.3544 30.401C69.9846 30.401 69.656 30.526 69.3767 30.7752C69.098 31.0244 68.9569 31.4675 68.9569 32.1006C68.9569 32.3482 68.9912 32.597 69.0592 32.8492C69.1251 33.102 69.2624 33.3232 69.4711 33.5142C69.6782 33.7045 69.9745 33.7995 70.3554 33.7995L70.3551 33.7988ZM75.6737 34.1368L74.3115 30.7156H74.2991L74.3111 30.8718V34.1365H73.7493V30.0624H74.5937L75.9024 33.4149L77.2104 30.0624H78.0536V34.1365H77.491V30.8718L77.5021 30.7156H77.4842L76.1271 34.1378H75.6717V34.1368H75.6737ZM81.4454 34.2585C81.1286 34.2585 80.8457 34.2091 80.5974 34.1085C80.3475 34.0087 80.1377 33.8649 79.9679 33.6768C79.7983 33.4881 79.6683 33.2614 79.5791 32.9939C79.4913 32.7249 79.4475 32.4262 79.4475 32.0996C79.4475 31.7281 79.5004 31.4057 79.6069 31.1291C79.7131 30.8526 79.8607 30.6288 80.0446 30.4528C80.2289 30.2774 80.4412 30.1492 80.6797 30.0653C80.9188 29.983 81.1733 29.942 81.4454 29.942C81.7195 29.942 81.9782 29.9817 82.2177 30.064C82.4568 30.1466 82.6685 30.2758 82.8515 30.4489C83.0364 30.6242 83.1791 30.8487 83.2856 31.1262C83.3895 31.4037 83.4421 31.7268 83.4421 32.1003C83.4421 32.4327 83.3983 32.7314 83.314 32.9959C83.2278 33.2607 83.0984 33.4878 82.9266 33.6771C82.757 33.8655 82.5457 34.0093 82.2951 34.1095C82.0449 34.2097 81.7604 34.2592 81.4458 34.2592L81.4454 34.2585ZM81.4448 33.7988C81.6813 33.7988 81.8884 33.7585 82.0648 33.6771C82.2425 33.5945 82.3869 33.4771 82.5042 33.3268C82.6185 33.1768 82.7051 32.9962 82.7606 32.7896C82.8162 32.5808 82.8439 32.3524 82.8439 32.1006C82.8439 31.7323 82.7904 31.4307 82.6852 31.1968C82.58 30.9622 82.451 30.7882 82.2948 30.6746C82.14 30.5605 81.9894 30.4863 81.8446 30.4524C81.6993 30.4186 81.5647 30.401 81.4441 30.401C81.0721 30.401 80.7463 30.526 80.4657 30.7752C80.1871 31.0244 80.0456 31.4675 80.0456 32.1006C80.0456 32.3482 80.0793 32.597 80.1459 32.8492C80.2129 33.102 80.3507 33.3232 80.5592 33.5142C80.7663 33.7045 81.0632 33.7995 81.4451 33.7995L81.4448 33.7988ZM85.3986 30.5227V31.7453H86.686C86.9143 31.7453 87.1303 31.7756 87.3371 31.8345C87.5419 31.893 87.718 32.0127 87.865 32.1927C88.011 32.3713 88.0832 32.6253 88.0832 32.9556C88.0832 33.1478 88.0469 33.3307 87.9728 33.5067C87.8976 33.682 87.7578 33.8314 87.5497 33.953C87.3442 34.0754 87.0587 34.1372 86.6902 34.1372L84.8357 34.1368V30.0627H87.8078V30.5221L85.3986 30.5227ZM85.3986 32.2044V33.6768H86.5707C87.1976 33.6768 87.5092 33.4377 87.5092 32.9621C87.5092 32.4571 87.1966 32.2053 86.5707 32.2053H85.3986V32.2044ZM90.0119 33.3391L92.2428 30.0624H92.8033V34.1365H92.2421V30.8363L90.0116 34.1365H89.4497V30.0624H90.0119V33.3391ZM94.0068 34.1368V33.6596C94.0545 33.6713 94.1058 33.6768 94.1578 33.6768C94.7147 33.6768 94.994 33.0558 94.994 31.8153V30.0627H97.6186V34.1368H97.0567V30.5227H95.5559V31.9334C95.5559 32.7473 95.4347 33.3229 95.1963 33.657C94.9568 33.9924 94.6468 34.1599 94.2636 34.1599C94.2051 34.1606 94.1205 34.1528 94.0071 34.1368H94.0068ZM99.8142 30.0627V31.7212H101.016C101.205 31.7212 101.402 31.7515 101.602 31.8114C101.806 31.8709 101.983 31.9926 102.137 32.1744C102.29 32.3569 102.367 32.612 102.367 32.9432C102.367 33.3866 102.231 33.6957 101.958 33.873C101.685 34.048 101.371 34.1365 101.017 34.1365H99.2526V30.0624L99.8145 30.0627H99.8142ZM99.8142 32.1816V33.6771H100.949C101.057 33.6771 101.174 33.6586 101.3 33.6215C101.426 33.5841 101.54 33.5103 101.641 33.3967C101.742 33.2848 101.793 33.1273 101.793 32.926C101.793 32.4295 101.488 32.1809 100.878 32.1809L99.8145 32.1813L99.8142 32.1816ZM104.246 32.2226V34.1368H103.684V30.0627H104.246V31.7616H106.351V30.0627H106.913V34.1368H106.351V32.2226H104.246ZM109.013 33.0831L108.618 34.1378H108.015L109.6 30.0633L110.198 30.0637L111.781 34.1378H111.177L110.783 33.0831H109.013ZM109.168 32.6237H110.629L109.899 30.6158L109.169 32.6237H109.168ZM115.551 32.5177H114.601L113.578 34.1362H112.884L114.022 32.4601C113.891 32.4523 113.761 32.4262 113.628 32.3826C113.497 32.3384 113.374 32.2711 113.26 32.177C113.146 32.0853 113.056 31.9656 112.988 31.8159C112.919 31.6666 112.885 31.4873 112.885 31.2772C112.885 30.9655 112.984 30.6841 113.181 30.4336C113.377 30.1844 113.76 30.0607 114.327 30.0607H116.114V34.1355H115.552L115.551 32.5177ZM115.551 30.5224H114.374C114.026 30.5224 113.786 30.6001 113.655 30.7586C113.524 30.916 113.458 31.0924 113.458 31.2846C113.458 31.5085 113.533 31.6933 113.682 31.8406C113.832 31.9854 114.089 32.0589 114.451 32.0589H115.552L115.551 30.5224ZM122.646 32.7874H123.208C123.183 33.0063 123.115 33.2243 123.008 33.4429C122.903 33.6612 122.721 33.8512 122.464 34.0148C122.207 34.1782 121.865 34.2585 121.438 34.2585C121.005 34.2585 120.639 34.1694 120.339 33.9891C120.037 33.8105 119.814 33.563 119.668 33.2458C119.52 32.9305 119.447 32.5717 119.447 32.1696C119.447 31.9893 119.46 31.7918 119.491 31.5781C119.519 31.3644 119.598 31.1278 119.723 30.8711C119.847 30.6125 120.048 30.3923 120.323 30.2127C120.601 30.0308 120.966 29.941 121.419 29.941C121.811 29.941 122.133 30.0028 122.382 30.1261C122.631 30.2501 122.817 30.4154 122.936 30.6232C123.056 30.8295 123.128 31.0621 123.154 31.3217H122.593C122.57 31.0823 122.469 30.8685 122.29 30.6821C122.112 30.4941 121.821 30.401 121.419 30.401C121.157 30.401 120.934 30.4521 120.754 30.5543C120.573 30.6545 120.432 30.7898 120.329 30.9596C120.224 31.1282 120.15 31.3143 120.109 31.515C120.068 31.716 120.047 31.9269 120.047 32.1474C120.047 32.3635 120.076 32.57 120.134 32.7685C120.194 32.9686 120.282 33.1449 120.401 33.3004C120.521 33.4546 120.669 33.5766 120.848 33.6671C121.027 33.7565 121.232 33.8005 121.465 33.8005C121.699 33.8005 121.904 33.7539 122.078 33.6609C122.254 33.5675 122.39 33.4439 122.485 33.2884C122.581 33.1319 122.635 32.9656 122.647 32.787L122.646 32.7874ZM125.121 31.8029H127.314V32.2616H125.121V33.6758L127.608 33.6765V34.1359H124.56V30.0617H127.543V30.5214H125.121V31.8029ZM129.769 30.5224H128.406V30.0627H131.689V30.5224H130.33V34.1362H129.769V30.5224ZM133.454 30.0627V31.7212H134.657C134.846 31.7212 135.042 31.7515 135.243 31.8114C135.445 31.8709 135.623 31.9926 135.778 32.1744C135.931 32.3569 136.007 32.612 136.007 32.9432C136.007 33.3866 135.871 33.6957 135.597 33.873C135.325 34.048 135.01 34.1365 134.656 34.1365H132.893V30.0624L133.454 30.0627H133.454ZM133.454 32.1816V33.6771H134.589C134.697 33.6771 134.814 33.6586 134.94 33.6215C135.066 33.5841 135.181 33.5103 135.281 33.3967C135.382 33.2848 135.433 33.1273 135.433 32.926C135.433 32.4295 135.128 32.1809 134.519 32.1809L133.454 32.1813L133.454 32.1816Z" fill="white"/>
<defs>
<linearGradient id="paint0_linear_23_2970" x1="118.682" y1="19.6073" x2="118.682" y2="4.16106" gradientUnits="userSpaceOnUse">
<stop stop-color="#DEDEDE"/>
<stop offset="0.368627" stop-color="white"/>
<stop offset="0.501961" stop-color="white"/>
<stop offset="0.65098" stop-color="white"/>
<stop offset="1" stop-color="#F0F0F0"/>
</linearGradient>
</defs>
</svg>
